<svg id="svg" version="1.1" viewBox="0 0 300 118.05555555555554" width="300" height="118.05555555555554" xmlns="http://www.w3.org/2000/svg"><g xmlns="http://www.w3.org/2000/svg" fill="none" fill-rule="nonzero" stroke="none" stroke-width="1" stroke-linecap="butt" stroke-linejoin="miter" stroke-miterlimit="10" stroke-dasharray="" stroke-dashoffset="0" font-family="none" font-weight="none" font-size="none" text-anchor="none" style="mix-blend-mode: normal"><path d="M0,0c99,0 198,0 300,0c0,38.95833 0,77.91667 0,118.05556c-99,0 -198,0 -300,0c0,-38.95833 0,-77.91667 0,-118.05556z" fill="#fefefe"/><path d="M177.22222,20.55556c2.65833,0 5.31667,0 8.05556,0c0,14.75833 0,29.51667 0,44.72222c-2.01667,0 -4.03333,0 -6.11111,0c-1.07141,-1.33926 -1.33731,-1.99178 -1.66667,-3.61111c-0.32083,0.24636 -0.64167,0.49271 -0.97222,0.74653c-3.7639,2.80967 -6.82215,3.57338 -11.52778,3.14236c-2.64696,-0.75194 -4.65743,-2.42644 -6.08398,-4.74935c-3.0767,-5.76963 -3.30239,-12.00211 -1.46919,-18.23676c1.09034,-3.1014 3.31886,-5.93703 6.22504,-7.49241c2.92207,-1.39193 5.76329,-2.05626 8.98329,-1.20443c1.78759,0.65924 2.97237,1.37721 4.56706,2.51628c0,-5.225 0,-10.45 0,-15.83333z" fill="#010101"/><path d="M94.21875,34.35764c1.84959,1.12189 3.14952,2.60112 4.11458,4.53125c0.15469,-0.18441 0.30937,-0.36881 0.46875,-0.55881c2.26095,-2.61614 4.56021,-4.2458 8.10547,-4.56163c3.82312,-0.00298 6.59272,0.30336 9.48134,2.89822c4.1331,4.73724 2.88352,11.82357 2.84722,17.58681c-0.01002,2.0557 -0.02005,4.11139 -0.03038,6.22938c-0.01289,1.58233 -0.02578,3.16465 -0.03906,4.79492c-2.75,0 -5.5,0 -8.33333,0c-0.00394,-1.55833 -0.00788,-3.11667 -0.01194,-4.72222c-0.01987,-3.025 -0.01987,-3.025 -0.04015,-6.11111c-0.00967,-2.01094 -0.01934,-4.02188 -0.0293,-6.09375c0.23006,-4.74412 0.23006,-4.74412 -1.58529,-7.23958c-1.41063,-0.85315 -3.12626,-0.73289 -4.72222,-0.55556c-1.23906,0.60866 -1.66083,1.10333 -2.5,2.22222c-0.99346,2.98038 -0.40046,8.74074 -0.43403,11.71875c-0.03491,3.00513 -0.03491,3.00513 -0.07053,6.07096c-0.01683,1.55439 -0.03366,3.10879 -0.051,4.71029c-2.75,0 -5.5,0 -8.33333,0c-0.00716,-1.53828 -0.01432,-3.07656 -0.0217,-4.66146c-0.01576,-1.99089 -0.03151,-3.98177 -0.04774,-6.03299c-0.01289,-1.98516 -0.02578,-3.97031 -0.03906,-6.01562c0.18625,-4.63113 0.18625,-4.63113 -1.28038,-7.17882c-1.24095,-0.99276 -2.61662,-0.98712 -4.15256,-0.95269c-1.55346,0.2188 -2.79136,0.95216 -3.90299,2.0638c-0.08694,3.80732 -0.13867,7.61546 -0.17361,11.42361c-0.02077,2.10905 -0.04154,4.2181 -0.06293,6.39106c-0.01361,1.63782 -0.02721,3.27565 -0.04123,4.96311c-2.75,0 -5.5,0 -8.33333,0c0,-10.26667 0,-20.53333 0,-31.11111c1.925,0 3.85,0 5.83333,0c1.5625,1.5625 1.5625,1.5625 1.66667,3.33333c0.21162,-0.16758 0.42324,-0.33516 0.64128,-0.50781c3.3062,-2.55911 6.86686,-4.36253 11.07747,-2.63455z" fill="#020202"/><path d="M148.10764,36.5625c2.90229,2.47401 4.16781,5.5297 4.67014,9.27083c0.03156,0.65919 0.04852,1.31922 0.05208,1.97917c0.00394,0.33301 0.00788,0.66602 0.01194,1.00911c-0.06402,0.90061 -0.06402,0.90061 -0.61958,2.01172c-1.80178,0.90089 -8.4546,0.29826 -10.17361,0.29514c-1.77389,-0.00251 -3.54779,-0.00501 -5.37543,-0.00759c-2.06572,-0.00484 -2.06572,-0.00484 -4.17318,-0.00977c0.59297,3.78439 0.59297,3.78439 2.83854,6.64388c2.20022,1.54382 4.51311,1.74045 7.16146,1.41168c1.54232,-0.53509 2.99038,-1.205 4.44444,-1.94444c1.05401,-0.52701 1.60363,-0.48978 2.77778,-0.27778c1.04942,1.0211 1.91855,2.15014 2.77778,3.33333c-1.24139,2.48278 -3.94295,3.6122 -6.40625,4.63542c-4.00635,1.33545 -9.50678,1.36762 -13.37891,-0.3342c-4.40152,-2.35574 -6.803,-5.65936 -8.2704,-10.41233c-0.91632,-4.79173 -0.69649,-9.86876 2.03125,-14.01042c0.3318,-0.43006 0.67311,-0.85298 1.02431,-1.26736c0.16543,-0.19622 0.33086,-0.39245 0.5013,-0.59462c4.96777,-5.40065 14.24192,-6.13897 20.10634,-1.73177z" fill="#020202"/><path d="M192.5,34.16667c2.75,0 5.5,0 8.33333,0c0,10.26667 0,20.53333 0,31.11111c-2.75,0 -5.5,0 -8.33333,0c0,-10.26667 0,-20.53333 0,-31.11111z" fill="#020202"/><path d="M175.55556,40.83333c0.55,0.45833 1.1,0.91667 1.66667,1.38889c0.25065,3.0957 0.25065,3.0957 0.26042,6.89236c0.01396,1.25075 0.02793,2.5015 0.04232,3.79015c-0.30273,3.20638 -0.30273,3.20638 -2.80273,5.4286c-1.88778,1.21203 -3.94046,1.06534 -6.11111,0.83333c-2.00556,-0.94379 -2.62126,-2.42111 -3.35612,-4.43468c-0.35472,-1.55924 -0.34989,-3.04735 -0.35916,-4.64518c-0.00788,-0.61409 -0.01576,-1.22819 -0.02387,-1.86089c0.21122,-3.03049 0.96173,-5.28564 3.18359,-7.39258c2.06236,-1.57132 5.3215,-1.10836 7.5,0z" fill="#fdfdfd"/><path d="M226.38889,32.77778c0.1375,0.275 0.1375,0.275 0.27778,0.55556c0.36667,0 0.73333,0 1.11111,0c-0.17497,1.16431 -0.57729,2.08798 -1.09375,3.14236c-1.34924,2.88615 -2.06222,5.82762 -0.95486,8.92361c0.62449,1.38726 1.51435,2.25023 2.88194,2.93403c2.98711,0.19588 5.93806,-0.35472 8.33333,-2.22222c1.55019,-1.46456 2.60127,-3.04352 3.54818,-4.94792c0.34071,-0.60764 0.34071,-0.60764 0.89627,-0.88542c0,0.18333 0,0.36667 0,0.55556c0.18333,0 0.36667,0 0.55556,0c-0.75058,3.00231 -3.30374,6.08146 -5.86806,7.77778c-2.02611,1.04573 -3.61659,1.12575 -5.88542,1.07639c-2.07515,0.05984 -2.07515,0.05984 -3.88889,0.94401c-0.72414,0.86218 -1.293,1.72834 -1.85764,2.70182c-0.1973,0.28968 -0.3946,0.57936 -0.59787,0.87782c-3.44959,5.18401 -4.8631,11.24309 -3.79449,17.38607c0.87108,3.91383 3.30462,6.75169 6.61458,8.95833c1.74079,0.82895 3.64676,0.84736 5.49805,0.34505c4.87157,-1.87198 8.2152,-5.99269 10.33529,-10.62283c1.63847,-5.35212 2.61711,-10.83856 3.4668,-16.36285c0.5215,-2.77775 1.1786,-5.47659 2.48806,-7.99479c0.53185,-0.879 0.53185,-0.879 0.24306,-1.71875c-0.12031,-0.19479 -0.24063,-0.38958 -0.36458,-0.59028c-0.50726,-1.01453 -0.3632,-1.94503 -0.27778,-3.05556c0.63882,-1.20858 1.25746,-2.09079 2.22222,-3.05556c0.18333,0 0.36667,0 0.55556,0c-0.55556,1.11111 -0.55556,1.11111 -1.66667,1.66667c-0.03002,0.53786 -0.05156,1.07619 -0.06944,1.61458c-0.01289,0.29971 -0.02578,0.59941 -0.03906,0.9082c0.05371,0.40122 0.05371,0.40122 0.10851,0.81055c1.02546,0.94271 1.02546,0.94271 2.20486,0.83333c1.2786,-0.31473 1.71084,-0.64666 2.51736,-1.66667c0.59434,-1.18868 0.67183,-1.75326 0.55556,-3.05556c-0.72365,-1.22786 -0.72365,-1.22786 -1.99653,-1.31944c-0.34948,-0.02292 -0.69896,-0.04583 -1.05903,-0.06944c0.83333,-0.55556 0.83333,-0.55556 2.17014,-0.43403c1.55022,0.35356 2.24339,1.02671 3.10764,2.37847c0.37271,1.37438 0.36953,1.76093 -0.27778,3.05556c0,-0.91667 0,-1.83333 0,-2.77778c-0.18333,0 -0.36667,0 -0.55556,0c-0.01719,0.37812 -0.03438,0.75625 -0.05208,1.14583c-0.25105,1.50629 -0.47648,2.02499 -1.61458,3.02083c-1.46739,0.64069 -2.61077,1.06213 -4.16667,0.55556c-0.36667,-0.275 -0.73333,-0.55 -1.11111,-0.83333c1.05169,1.08674 1.58896,1.41041 3.09028,1.54514c0.44687,0.0401 0.89375,0.08021 1.35417,0.12153c0,0.09167 0,0.18333 0,0.27778c-0.21091,0.00716 -0.42181,0.01432 -0.63911,0.0217c-0.27607,0.01576 -0.55215,0.03151 -0.83659,0.04774c-0.27392,0.01289 -0.54785,0.02578 -0.83008,0.03906c-0.89872,0.11776 -0.89872,0.11776 -1.58312,1.28038c-0.23345,0.80182 -0.42941,1.61468 -0.60764,2.43056c-0.11888,0.54248 -0.23776,1.08496 -0.36024,1.64388c-0.52359,2.53295 -1.01754,5.07133 -1.51476,7.60959c-2.85671,14.34773 -2.85671,14.34773 -6.96181,19.14931c-0.15361,0.18119 -0.30723,0.36237 -0.46549,0.54904c-2.19271,2.37587 -5.73856,4.54381 -9.00716,4.79492c-3.27791,0.06905 -5.10276,-0.41317 -7.50651,-2.68772c-3.51423,-3.70846 -5.73158,-8.28374 -5.60655,-13.45378c0.69548,-7.05166 4.56431,-12.57324 8.69683,-18.09136c-0.4125,-0.1375 -0.4125,-0.1375 -0.83333,-0.27778c-0.31467,-0.60547 -0.31467,-0.60547 -0.59028,-1.35417c-0.09238,-0.24564 -0.18477,-0.49128 -0.27995,-0.74436c-1.60875,-4.53638 0.08185,-9.27661 1.98134,-13.45703z" fill="#4b4d4d"/><path d="M185.27778,20.55556c0.09167,0 0.18333,0 0.27778,0c0,0.73333 0,1.46667 0,2.22222c0.825,0 1.65,0 2.5,0c0,14.85 0,29.7 0,45c-2.01667,0 -4.03333,0 -6.11111,0c-1.11111,-1.11111 -1.11111,-1.11111 -1.38889,-2.5c1.55833,0 3.11667,0 4.72222,0c0,-14.75833 0,-29.51667 0,-44.72222z" fill="#969696"/><path d="M106.75347,75.71181c1.55289,1.02649 2.68601,2.2198 3.24653,4.01042c0.2703,2.64892 0.24314,5.02834 -1.38889,7.22222c-1.36875,1.33537 -2.62109,1.75562 -4.51389,1.78819c-1.94362,-0.03196 -2.92037,-0.21742 -4.375,-1.51042c-1.83116,-2.37082 -1.8673,-4.59076 -1.66667,-7.5c0.61163,-1.81043 1.52579,-2.76169 3.05556,-3.88889c1.87091,-0.89266 3.71828,-0.81866 5.64236,-0.12153z" fill="#fcfcfc"/><path d="M107.91667,74.02778c2.14668,1.23492 3.56701,2.84066 4.39996,5.18446c0.68818,2.9563 0.21181,5.49054 -1.28472,8.06966c-1.22797,1.83683 -2.77995,2.60973 -4.7819,3.36046c-2.77324,0.54474 -5.04794,0.08241 -7.43056,-1.35417c-1.71675,-1.39703 -2.89586,-3.5057 -3.26389,-5.67708c-0.25913,-3.07719 0.16533,-5.34091 2.15278,-7.74306c2.63697,-2.78976 6.74132,-3.45763 10.20833,-1.84028zM99.34028,77.34375c-1.57302,2.13481 -1.5306,4.2312 -1.28472,6.82292c0.50331,1.66591 1.2698,2.9609 2.77778,3.88889c1.79987,0.89993 4.06876,0.94821 5.99609,0.32227c1.64402,-0.93539 2.58361,-2.45027 3.17057,-4.21116c0.25841,-3.51982 0.25841,-3.51982 -1.11111,-6.66667c-1.49115,-1.46404 -2.7053,-2.29594 -4.80903,-2.32639c-2.04312,0.04668 -3.30567,0.70967 -4.73958,2.17014z" fill="#0a0a0a"/><path d="M128.33333,73.33333c0.73333,0 1.46667,0 2.22222,0c0,5.68333 0,11.36667 0,17.22222c-1.66667,0 -1.66667,0 -2.22765,-0.42969c-0.16436,-0.20195 -0.32871,-0.40391 -0.49805,-0.61198c-0.28467,-0.3459 -0.28467,-0.3459 -0.57509,-0.69878c-0.80288,-1.03693 -1.59724,-2.0787 -2.3763,-3.13368c-1.13511,-1.52962 -2.29903,-3.03713 -3.45812,-4.54861c-0.85011,-1.11357 -1.69088,-2.23425 -2.53147,-3.35503c-0.09167,4.21667 -0.18333,8.43333 -0.27778,12.77778c-0.64167,0 -1.28333,0 -1.94444,0c0,-5.59167 0,-11.18333 0,-16.94444c1.94444,0 1.94444,0 2.61502,0.62391c0.20267,0.29255 0.40534,0.58509 0.61415,0.8865c0.35342,0.4936 0.35342,0.4936 0.71397,0.99718c0.2571,0.36416 0.51419,0.72832 0.77908,1.10352c0.59882,0.78935 1.20078,1.57632 1.80556,2.36111c0.30221,0.39531 0.60443,0.79063 0.9158,1.19792c0.82823,1.08276 1.65696,2.16513 2.48698,3.24653c0.22201,0.28932 0.44401,0.57864 0.67274,0.87674c0.45077,0.60536 0.45077,0.60536 0.78559,0.92882c0.09167,-4.125 0.18333,-8.25 0.27778,-12.5z" fill="#0b0b0b"/><path d="M135.55556,73.33333c1.66667,0 1.66667,0 2.53472,0.83333c0.36639,0.45698 0.7239,0.9211 1.07639,1.38889c0.24027,0.31725 0.48053,0.63451 0.72808,0.96137c0.56092,0.7464 1.11961,1.49447 1.67643,2.24392c1.31113,1.7492 2.65693,3.47064 4.00282,5.19314c0.55612,0.71385 1.10527,1.43319 1.64822,2.15712c0.09167,-4.125 0.18333,-8.25 0.27778,-12.5c0.64167,0 1.28333,0 1.94444,0c0,5.59167 0,11.18333 0,16.94444c-1.66667,0 -1.66667,0 -2.44141,-0.75521c-0.25996,-0.34661 -0.51992,-0.69323 -0.78776,-1.05035c-0.28968,-0.38063 -0.57936,-0.76126 -0.87782,-1.15343c-0.29469,-0.39854 -0.58939,-0.79707 -0.89301,-1.20768c-0.42056,-0.55913 -0.42056,-0.55913 -0.84961,-1.12956c-0.52707,-0.70116 -1.05184,-1.40407 -1.57335,-2.10937c-1.29691,-1.71736 -2.63635,-3.40221 -3.96593,-5.0944c-0.09167,4.125 -0.18333,8.25 -0.27778,12.5c-0.73333,0 -1.46667,0 -2.22222,0c0,-5.68333 0,-11.36667 0,-17.22222z" fill="#0b0b0b"/><path d="M200.83333,36.66667c0.91667,0 1.83333,0 2.77778,0c0,10.26667 0,20.53333 0,31.11111c-2.75,0 -5.5,0 -8.33333,0c0,-0.825 0,-1.65 0,-2.5c1.83333,0 3.66667,0 5.55556,0c0,-9.44167 0,-18.88333 0,-28.61111z" fill="#9d9d9d"/><path d="M107.77778,40.27778c1.33892,0.4698 1.62569,0.77869 2.5,1.94444c0,0.18333 0,0.36667 0,0.55556c-0.22129,0.00716 -0.44258,0.01432 -0.67057,0.0217c-2.37956,0.10324 -2.37956,0.10324 -4.32943,1.36719c-2.00282,4.00564 -1.29048,8.65279 -1.31944,13.05556c-0.02363,2.94766 -0.02363,2.94766 -0.04774,5.95486c-0.00716,1.51823 -0.01432,3.03646 -0.0217,4.60069c-2.75,0 -5.5,0 -8.33333,0c0,-0.825 0,-1.65 0,-2.5c1.925,0 3.85,0 5.83333,0c-0.00967,-1.54473 -0.01934,-3.08945 -0.0293,-4.68099c-0.00752,-1.9959 -0.01504,-3.9918 -0.02279,-6.04818c-0.00967,-1.9916 -0.01934,-3.9832 -0.0293,-6.03516c0.08138,-4.90234 0.08138,-4.90234 0.91471,-6.56901c1.86945,-1.71684 3.06608,-1.8489 5.55556,-1.66667z" fill="#989898"/><path d="M90.98958,40.625c0.67708,0.48611 0.67708,0.48611 1.51042,1.59722c0,0.18333 0,0.36667 0,0.55556c-0.21162,0.00072 -0.42324,0.00143 -0.64128,0.00217c-2.25797,0.08457 -3.40199,0.57841 -5.19206,1.94227c-0.275,0.09167 -0.55,0.18333 -0.83333,0.27778c0,7.51667 0,15.03333 0,22.77778c-2.65833,0 -5.31667,0 -8.05556,0c0,-0.825 0,-1.65 0,-2.5c1.83333,0 3.66667,0 5.55556,0c-0.04351,-2.43257 -0.04351,-2.43257 -0.08789,-4.91428c-0.02256,-2.09652 -0.04512,-4.19303 -0.06836,-6.35308c-0.04351,-3.13726 -0.04351,-3.13726 -0.08789,-6.33789c0.08057,-1.70693 0.16113,-3.41387 0.24414,-5.17253c2.58231,-2.00847 4.46062,-2.99627 7.65625,-1.875z" fill="#989898"/><path d="M150.55556,39.16667c1.67501,1.27301 2.65791,2.57376 3.61111,4.44444c0.11566,0.21234 0.23131,0.42468 0.35048,0.64345c1.19823,2.61929 1.01889,5.71265 0.76063,8.52322c-0.83333,0.83333 -0.83333,0.83333 -5.16819,0.91471c-1.79502,-0.00967 -3.59004,-0.01934 -5.43945,-0.0293c-1.79717,-0.00752 -3.59434,-0.01504 -5.44596,-0.02279c-1.39398,-0.00967 -2.78796,-0.01934 -4.22418,-0.0293c0.275,1.1 0.55,2.2 0.83333,3.33333c0.09167,0.45833 0.18333,0.91667 0.27778,1.38889c-1.77791,-0.78437 -2.67108,-2.47701 -3.4375,-4.18403c-0.17361,-0.81597 -0.17361,-0.81597 -0.17361,-3.03819c1.37715,-0.01683 2.7543,-0.03366 4.17318,-0.051c1.77389,-0.02327 3.54779,-0.04655 5.37543,-0.07053c1.77246,-0.02256 3.54492,-0.04512 5.37109,-0.06836c2.48583,0.15955 2.48583,0.15955 4.80252,-0.36567c0.94707,-2.84121 0.28321,-6.62092 -0.85829,-9.32943c-0.25745,-0.50757 -0.53117,-1.00684 -0.80838,-1.50391c0,-0.18333 0,-0.36667 0,-0.55556z" fill="#999999"/><path d="M117.5,38.33333c1.0401,0.52005 1.39138,0.77964 2.08333,1.64931c0.23633,0.28735 0.23633,0.28735 0.47743,0.58051c2.7797,4.63893 1.7065,10.5906 1.67535,15.73893c-0.01002,2.13805 -0.02005,4.27611 -0.03038,6.47895c-0.01289,1.64892 -0.02578,3.29785 -0.03906,4.99674c-2.65833,0 -5.31667,0 -8.05556,0c0,-0.825 0,-1.65 0,-2.5c1.83333,0 3.66667,0 5.55556,0c-0.01663,-3.6748 -0.04128,-7.34957 -0.06944,-11.02431c-0.01289,-2.04639 -0.02578,-4.09277 -0.03906,-6.20117c-0.13424,-4.18289 -0.29485,-5.92904 -1.55816,-9.71897z" fill="#999999"/><path d="M198.99306,20.85069c1.10028,0.81211 2.05763,1.80622 2.67361,3.03819c0.20131,1.65636 0.28855,3.17145 -0.69444,4.58333c-1.39104,1.39104 -2.48786,1.99501 -4.44444,2.23958c-1.80342,-0.22543 -2.93629,-0.95424 -4.14931,-2.29167c-1.00779,-1.49152 -0.92926,-3.05302 -0.71181,-4.80903c1.41897,-3.08554 4.28272,-3.71861 7.32639,-2.76042z" fill="#020202"/><path d="M154.72222,73.61111c3.48333,0 6.96667,0 10.55556,0c0,0.55 0,1.1 0,1.66667c-2.75,0 -5.5,0 -8.33333,0c0,1.925 0,3.85 0,5.83333c2.2,0 4.4,0 6.66667,0c0,0.55 0,1.1 0,1.66667c-2.2,0 -4.4,0 -6.66667,0c0,1.925 0,3.85 0,5.83333c2.75,0 5.5,0 8.33333,0c0,0.64167 0,1.28333 0,1.94444c-3.48333,0 -6.96667,0 -10.55556,0c0,-5.59167 0,-11.18333 0,-16.94444z" fill="#020202"/><path d="M181.66667,74.44444c0.36667,0.275 0.73333,0.55 1.11111,0.83333c-0.18333,0.36667 -0.36667,0.73333 -0.55556,1.11111c-1.11111,0.27778 -1.11111,0.27778 -2.23958,-0.26042c-1.4861,-0.7015 -2.80597,-0.80758 -4.42708,-0.57292c-2.10953,0.78354 -3.17214,1.89984 -4.16667,3.88889c-0.18283,2.32696 -0.37654,4.87594 0.83333,6.94444c1.95791,1.88922 2.96091,2.0356 5.61523,2.02799c1.36748,-0.10866 2.113,-0.49389 3.27366,-1.19466c0.36667,0 0.73333,0 1.11111,0c0.18333,0.36667 0.36667,0.73333 0.55556,1.11111c-2.20493,1.94243 -4.06959,2.60938 -6.96832,2.57813c-2.0202,-0.19498 -3.88459,-1.08433 -5.25391,-2.57812c-1.71991,-2.95015 -2.58536,-5.93932 -1.76432,-9.36198c0.88186,-2.15567 2.51383,-3.96044 4.5421,-5.08247c2.84944,-1.11237 5.64529,-0.78847 8.33333,0.55556z" fill="#0b0b0b"/><path d="M91.38889,74.44444c0.275,0.18333 0.55,0.36667 0.83333,0.55556c-0.09167,0.45833 -0.18333,0.91667 -0.27778,1.38889c-0.55556,0.20833 -0.55556,0.20833 -1.38889,0.27778c-0.33229,-0.1776 -0.66458,-0.35521 -1.00694,-0.53819c-1.73287,-0.81692 -3.21374,-0.92133 -5.04449,-0.31793c-1.80952,0.82348 -2.609,1.73747 -3.46246,3.52973c-0.5441,2.44846 -0.42886,4.87554 0.90278,7.04861c0.9809,1.07266 1.92546,1.90871 3.40712,2.00087c0.36524,0.0043 0.73047,0.00859 1.10677,0.01302c0.54356,0.01074 0.54356,0.01074 1.09809,0.0217c1.11403,-0.09627 1.75839,-0.3788 2.72136,-0.92448c0.79861,-0.19097 0.79861,-0.19097 1.38889,-0.27778c0.275,0.36667 0.55,0.73333 0.83333,1.11111c-1.78603,1.69203 -3.65193,2.54722 -6.11111,2.63889c-2.58149,-0.09942 -4.60711,-1.03008 -6.38889,-2.91667c-1.69574,-2.8233 -1.94682,-5.32618 -1.66667,-8.61111c0.68456,-2.41427 2.02153,-4.01507 4.16667,-5.27778c2.89989,-1.52367 6.04691,-1.12262 8.88889,0.27778z" fill="#0a0a0a"/><path d="M175.55556,40.83333c0.55,0.45833 1.1,0.91667 1.66667,1.38889c0.12005,2.34093 0.13977,4.68751 0.10417,7.03125c-0.01504,1.27653 -0.03008,2.55306 -0.04557,3.86827c-0.01934,0.98649 -0.03867,1.97298 -0.05859,2.98937c-0.09167,0 -0.18333,0 -0.27778,0c0,-4.4 0,-8.8 0,-13.33333c-3.91341,-0.21011 -3.91341,-0.21011 -6.85764,1.44097c-2.55936,3.11274 -2.52246,6.94557 -2.30903,10.78125c0.20529,1.31959 0.48044,2.60125 0.83333,3.88889c-1.24399,-0.46317 -1.78542,-0.7919 -2.5,-1.94444c-0.92751,-2.38899 -1.26218,-4.38589 -1.25,-6.94444c-0.00286,-0.60156 -0.00573,-1.20312 -0.00868,-1.82292c0.24785,-3.0034 0.99823,-5.2529 3.20313,-7.34375c2.06236,-1.57132 5.3215,-1.10836 7.5,0z" fill="#959595"/><path d="M142.08659,39.96528c1.54604,0.89523 2.6291,2.23735 3.19119,3.92361c0,0.73333 0,1.46667 0,2.22222c-4.21667,0 -8.43333,0 -12.77778,0c0.31726,-2.22078 0.73507,-3.51285 2.32639,-5.10417c2.05507,-1.48816 4.83075,-1.88801 7.2602,-1.04167z" fill="#979797"/><path d="M151.66667,59.44444c1.14622,0.57311 1.52809,0.98653 2.29167,1.97917c0.19623,0.2528 0.39245,0.5056 0.59462,0.76606c0.22129,0.29111 0.22129,0.29111 0.44705,0.58811c-1.22928,2.45857 -3.37853,3.48387 -5.83333,4.44444c-2.3642,0.68762 -4.484,0.9534 -6.94444,0.95486c-0.60156,0.00537 -1.20312,0.01074 -1.82292,0.01627c-3.45123,-0.26596 -6.73982,-1.64821 -9.28819,-4.02669c0,-0.18333 0,-0.36667 0,-0.55556c0.6875,0.275 0.6875,0.275 1.38889,0.55556c2.42315,0.92787 4.40416,1.24881 6.99653,1.21528c0.61123,-0.00358 1.22246,-0.00716 1.85221,-0.01085c3.89821,-0.21312 7.39252,-1.34057 10.31793,-3.98221c0.18333,-0.36667 0.36667,-0.73333 0.55556,-1.11111c-0.275,-0.4125 -0.275,-0.4125 -0.55556,-0.83333z" fill="#979797"/><path d="M185.27778,73.61111c4.30833,0 8.61667,0 13.05556,0c0,0.55 0,1.1 0,1.66667c-1.74167,0 -3.48333,0 -5.27778,0c0,5.04167 0,10.08333 0,15.27778c-0.825,0 -1.65,0 -2.5,0c0,-5.04167 0,-10.08333 0,-15.27778c-1.74167,0 -3.48333,0 -5.27778,0c0,-0.55 0,-1.1 0,-1.66667z" fill="#0c0c0c"/><path d="M177.22222,61.38889c0.55556,0.27778 0.55556,0.27778 0.7921,0.88325c0.0709,0.24707 0.1418,0.49414 0.21484,0.7487c0.07233,0.24564 0.14466,0.49128 0.21918,0.74436c0.16276,0.67925 0.16276,0.67925 0.16276,1.51259c-3.3822,2.56392 -6.3192,3.16997 -10.55556,2.77778c-1.48539,-0.40721 -2.70301,-0.83787 -3.90625,-1.80556c-0.20947,-0.16328 -0.41894,-0.32656 -0.63477,-0.49479c-0.45898,-0.47743 -0.45898,-0.47743 -0.45898,-1.31076c0.3937,0.20195 0.3937,0.20195 0.79536,0.40799c2.63916,0.97691 6.18559,0.88863 8.8227,-0.11285c1.7071,-0.85109 3.14003,-2.07798 4.54861,-3.35069z" fill="#979797"/><path d="M201.38889,23.61111c1.34134,0.47262 1.94019,1.05891 2.77778,2.22222c0.44514,1.78055 0.51115,3.09919 -0.26042,4.79167c-1.33406,1.63354 -2.53914,2.33185 -4.63542,2.58681c-1.84012,-0.23659 -3.04622,-1.00691 -4.27083,-2.37847c0.09167,-0.18333 0.18333,-0.36667 0.27778,-0.55556c0.36667,0.02292 0.73333,0.04583 1.11111,0.06944c1.87205,-0.00883 3.11254,-0.69237 4.44444,-1.99653c0.78103,-1.58646 0.67308,-3.00279 0.55556,-4.73958z" fill="#999999"/><path d="M141.64931,42.13542c0.3348,-0.00466 0.6696,-0.00931 1.01454,-0.01411c1.01658,0.10829 1.53722,0.30598 2.33616,0.93424c0.27778,0.83333 0.27778,0.83333 0.27778,3.05556c-3.11667,0 -6.23333,0 -9.44444,0c0.50778,-1.26945 0.66287,-1.59954 1.63194,-2.41319c0.18835,-0.16149 0.37669,-0.32298 0.57075,-0.48937c1.2206,-0.9143 2.1288,-1.06838 3.61328,-1.07313z" fill="#fdfdfd"/><path d="M250.83333,37.22222c2.56316,-0.16863 2.56316,-0.16863 3.50694,0.57292c0.48985,1.04649 0.55699,1.61291 0.38194,2.76042c-0.5999,1.1998 -1.09311,2.01003 -2.1875,2.79514c-1.06591,0.31977 -1.74036,0.26585 -2.8125,-0.01736c-0.83333,-0.83333 -0.83333,-0.83333 -0.97222,-2.1875c0.02868,-1.09637 0.07237,-1.34309 0.79861,-2.22222c0.24063,-0.19479 0.48125,-0.38958 0.72917,-0.59028c0.18333,-0.36667 0.36667,-0.73333 0.55556,-1.11111z" fill="#f2f2e9"/><path d="M237.84722,22.77778c0.37813,0.1375 0.37813,0.1375 0.76389,0.27778c-0.09167,0.45833 -0.18333,0.91667 -0.27778,1.38889c-0.25781,-0.04583 -0.51562,-0.09167 -0.78125,-0.13889c-0.57578,-0.06875 -0.57578,-0.06875 -1.16319,-0.13889c-0.24779,-0.03187 -0.49557,-0.06374 -0.75087,-0.09657c-0.39317,-0.02954 -0.39317,-0.02954 -0.79427,-0.05968c-0.24671,-0.02327 -0.49343,-0.04655 -0.74761,-0.07053c-1.73778,0.51664 -2.49344,2.56466 -3.31163,4.04406c-0.28753,0.56217 -0.57507,1.12435 -0.87131,1.70356c-0.29111,0.56647 -0.58223,1.13294 -0.88216,1.71658c-0.48977,0.96361 -0.48977,0.96361 -0.97548,1.92925c-0.45833,0 -0.91667,0 -1.38889,0c0.28671,-3.19532 2.14737,-6.17878 4.16667,-8.61111c0.18906,-0.25781 0.37812,-0.51562 0.57292,-0.78125c1.73681,-1.96092 4.06741,-1.72168 6.44097,-1.16319z" fill="#bbbbb5"/><path d="M243.05556,25c1.40472,0.42568 2.35915,1.13113 3.33333,2.22222c-0.00224,2.45614 -0.82507,4.62327 -1.61458,6.92708c-0.24242,0.71292 -0.48483,1.42585 -0.73459,2.16037c-0.59279,1.69823 -1.19689,3.39099 -1.81749,5.07921c-0.09167,-0.18333 -0.18333,-0.36667 -0.27778,-0.55556c-0.18333,0 -0.36667,0 -0.55556,0c-0.4113,-1.23389 0.09648,-1.90228 0.59028,-3.09028c2.03769,-4.96694 2.03769,-4.96694 2.46528,-10.24306c-0.36667,-0.18333 -0.73333,-0.36667 -1.11111,-0.55556c-0.18333,-0.09167 -0.36667,-0.18333 -0.55556,-0.27778c0.09167,-0.55 0.18333,-1.1 0.27778,-1.66667z" fill="#b6b5b0"/><path d="M253.55903,36.78819c1.55022,0.35356 2.24339,1.02671 3.10764,2.37847c0.37271,1.37438 0.36953,1.76093 -0.27778,3.05556c0,-0.91667 0,-1.83333 0,-2.77778c-0.18333,0 -0.36667,0 -0.55556,0c-0.02578,0.56719 -0.02578,0.56719 -0.05208,1.14583c-0.25105,1.50629 -0.47648,2.02499 -1.61458,3.02083c-1.48233,0.64721 -2.59338,1.0312 -4.16667,0.55556c-0.36667,-0.18333 -0.73333,-0.36667 -1.11111,-0.55556c-0.18333,0 -0.36667,0 -0.55556,0c-0.50726,-1.01453 -0.3632,-1.94503 -0.27778,-3.05556c0.63882,-1.20858 1.25746,-2.09079 2.22222,-3.05556c0.18333,0 0.36667,0 0.55556,0c-0.55556,1.11111 -0.55556,1.11111 -1.66667,1.66667c-0.03002,0.53786 -0.05156,1.07619 -0.06944,1.61458c-0.01289,0.29971 -0.02578,0.59941 -0.03906,0.9082c0.05371,0.40122 0.05371,0.40122 0.10851,0.81055c1.02546,0.94271 1.02546,0.94271 2.20486,0.83333c1.2786,-0.31473 1.71084,-0.64666 2.51736,-1.66667c0.59434,-1.18868 0.67183,-1.75326 0.55556,-3.05556c-0.72365,-1.22786 -0.72365,-1.22786 -1.99653,-1.31944c-0.34948,-0.02292 -0.69896,-0.04583 -1.05903,-0.06944c0.83333,-0.55556 0.83333,-0.55556 2.17014,-0.43403z" fill="#9b9a96"/><path d="M243.05556,25c1.40472,0.42568 2.35915,1.13113 3.33333,2.22222c0.12955,1.26213 -0.15577,2.41175 -0.55556,3.61111c-0.18333,0 -0.36667,0 -0.55556,0c0,0.275 0,0.55 0,0.83333c-0.18333,0 -0.36667,0 -0.55556,0c0.09167,-1.19167 0.18333,-2.38333 0.27778,-3.61111c-0.18333,0 -0.36667,0 -0.55556,0c0,-0.18333 0,-0.36667 0,-0.55556c-0.36667,-0.18333 -0.73333,-0.36667 -1.11111,-0.55556c-0.18333,-0.09167 -0.36667,-0.18333 -0.55556,-0.27778c0.09167,-0.55 0.18333,-1.1 0.27778,-1.66667z" fill="#9e9f9a"/><path d="M255.83333,39.44444c0.18333,0 0.36667,0 0.55556,0c0.25424,2.86723 0.25424,2.86723 -0.35156,3.97786c-0.81583,0.94653 -1.40543,1.53849 -2.65625,1.64388c-2.57728,0.0559 -2.57728,0.0559 -3.88455,-0.58702c-0.20052,-0.19479 -0.40104,-0.38958 -0.60764,-0.59028c0,-0.18333 0,-0.36667 0,-0.55556c0.55,0.275 0.55,0.275 1.11111,0.55556c1.57058,0.47483 2.68384,0.07994 4.16667,-0.55556c1.22844,-1.07095 1.38642,-2.32418 1.66667,-3.88889z" fill="#e5e4dc"/></g></svg>